                    <svg xmlns:dc="http://purl.org/dc/elements/1.1/" version="1.1"
                             xmlns="http://www.w3.org/2000/svg" viewBox="257.522 624.616 534.298 81.144"
                             width="534.298" height="81.144">
                            <defs/>
                            <metadata> Produced by OmniGraffle 7.9.2
                                <dc:date>2018-11-13 12:31:50 +0000</dc:date>
                            </metadata>
                            <g id="Canvas_1" stroke-opacity="1" stroke-dasharray="none" fill-opacity="1" fill="none"
                               stroke="none">
                                <title>Canvas 1</title>
                                <g id="Canvas_1: Text">
                                    <title>Text</title>
                                    <g id="Group_67">
                                        <g id="Group_61">
                                            <title>Landsker</title>
                                            <g id="Graphic_53">
                                                <path d="M 464.44 685.6 L 503.02035 685.6 C 503.6701 678.88 504.3199 672.16 504.8072 665.524 L 502.28935 665.524 C 498.95926 670.816 495.54795 675.94 491.9742 680.896 C 491.16197 682.156 490.1873 682.576 488.88776 682.408 L 484.2581 681.904 C 484.01445 666.7 484.01445 650.824 484.2581 637.552 C 484.2581 635.704 484.9891 634.696 486.776 634.276 L 488.7253 633.772 L 488.7253 631.252 L 464.44 631.252 L 464.44 633.772 L 466.47054 634.276 C 468.095 634.612 468.9072 635.704 468.9884 637.552 C 469.15086 650.236 469.15086 665.608 468.9884 678.88 C 468.9072 681.232 468.1762 682.156 466.3081 682.576 L 464.44 682.996 Z"
                                                      fill="#fdf6e3"/>
                                            </g>
                                            <g id="Graphic_54">
                                                <path d="M 546.9093 681.4 C 545.18674 680.896 544.1204 680.056 544.1204 677.788 C 544.03836 672.328 544.1204 664.768 544.1204 658.3 C 544.2024 648.892 536.984 645.196 528.043 645.196 C 521.6449 645.196 514.8366 647.968 508.35644 652.672 L 513.52416 661.828 L 515.82093 661.828 C 517.4615 658.552 518.4458 656.452 520.1684 653.26 C 522.46515 648.892 523.61353 648.052 525.008 648.052 C 527.22274 648.052 529.8476 651.076 529.8476 659.476 L 529.8476 661.66 C 525.3361 662.92 518.7739 664.936 517.37945 665.44 C 510.81726 667.876 507.044 671.488 507.044 677.2 C 507.044 682.66 510.8993 686.692 517.2154 686.692 C 521.89096 686.692 526.32044 684.256 530.58586 681.148 L 532.63655 686.44 L 534.11304 686.44 C 538.7886 685.516 543.46416 684.76 547.9757 684.172 L 547.9757 681.736 Z M 521.7269 674.764 C 521.7269 671.236 523.03934 667.036 527.30477 665.104 L 529.8476 664.096 C 529.8476 669.388 529.92964 675.016 529.8476 679.048 C 528.2891 680.476 526.97666 681.232 525.5822 681.232 C 522.9573 681.232 521.7269 678.712 521.7269 674.764 Z"
                                                      fill="#fdf6e3"/>
                                            </g>
                                            <g id="Graphic_55">
                                                <path d="M 593.921 682.912 C 592.29846 682.324 591.5683 681.316 591.5683 679.132 C 591.4872 671.488 591.4872 664.012 591.4872 656.788 C 591.5683 649.816 586.944 645.196 580.1292 645.196 C 575.1804 645.196 571.28626 647.716 568.2845 649.564 L 566.8242 650.488 L 565.9318 645.196 L 563.9847 645.196 C 558.5491 646.288 553.8437 647.128 548.976 647.968 L 548.976 650.32 L 550.3552 650.74 C 552.0589 651.16 553.0324 652.252 553.0324 654.352 C 553.19467 662.5 553.19467 671.152 553.0324 679.132 C 553.0324 681.316 552.3834 682.24 550.59856 682.912 L 549.7873 683.248 L 549.7873 685.6 L 570.7995 685.6 L 570.7995 683.248 L 569.6637 682.912 C 568.0411 682.408 567.22985 681.4 567.22985 679.216 C 567.0676 670.984 567.1487 662.164 567.22985 653.764 C 568.7713 652.672 570.6372 651.832 572.3409 651.832 C 575.6672 651.832 577.28974 654.184 577.3709 658.552 C 577.452 665.104 577.5331 672.076 577.3709 679.132 C 577.3709 681.316 576.5596 682.408 574.937 682.912 L 573.8012 683.248 L 573.8012 685.6 L 594.81344 685.6 L 594.81344 683.248 Z"
                                                      fill="#fdf6e3"/>
                                            </g>
                                            <g id="Graphic_56">
                                                <path d="M 637.45005 681.4 C 635.81305 680.896 634.749 680.14 634.749 677.872 C 634.66714 661.912 634.749 633.94 634.83084 624.952 L 632.53904 624.952 C 626.8914 626.128 620.1797 627.556 614.6957 628.48 L 614.6957 630.832 L 617.9697 631.588 C 620.016 632.092 620.4252 633.268 620.4252 635.032 C 620.4252 638.644 620.5071 642.256 620.5071 645.784 C 619.0338 645.364 617.3968 645.196 615.5961 645.196 C 603.7278 645.196 594.888 653.68 594.888 667.792 C 594.888 678.712 600.69936 686.692 610.2758 686.692 C 614.7776 686.692 618.6245 684.424 621.4893 681.988 L 623.4537 686.356 L 625.0088 686.44 C 629.10134 685.6 635.0764 684.592 638.5141 684.172 L 638.5141 681.736 Z M 609.8666 661.576 C 609.8666 652.42 612.3221 648.052 615.3505 648.052 C 618.1334 648.052 620.2615 651.412 620.5889 658.3 C 620.5889 666.028 620.5889 673.336 620.5071 679.552 C 619.443 680.308 618.5427 680.56 617.5605 680.56 C 611.9947 680.56 609.8666 671.992 609.8666 661.576 Z"
                                                      fill="#fdf6e3"/>
                                            </g>
                                            <g id="Graphic_57">
                                                <path d="M 655.2308 686.608 C 665.43914 686.608 671.2289 681.568 671.2289 673.672 C 671.2289 660.484 652.71685 659.728 652.71685 651.16 C 652.71685 649.06 654.0119 647.884 655.9165 647.884 C 657.59246 647.884 659.0399 648.724 661.2492 651.496 C 662.849 653.512 665.0582 656.536 666.0486 658.132 L 668.334 658.132 C 668.5626 654.604 668.9435 650.236 669.2482 647.548 C 666.2771 646.036 661.6301 645.196 657.7448 645.196 C 647.4603 645.196 642.28 650.824 642.28 658.132 C 642.28 671.068 660.4112 671.572 660.4112 680.308 C 660.4112 682.24 659.497 684.004 656.9068 684.004 C 654.77375 684.004 653.3263 683.08 652.1074 681.652 C 650.3552 679.552 646.8509 674.848 645.1749 672.244 L 642.6609 672.244 C 642.6609 676.192 642.4324 681.148 642.28 684.172 C 645.8605 685.768 651.3456 686.608 655.2308 686.608 Z"
                                                      fill="#fdf6e3"/>
                                            </g>
                                            <g id="Graphic_58">
                                                <path d="M 691.1517 679.216 C 690.9856 660.988 690.9025 643.264 690.9856 624.616 L 688.66035 624.616 C 682.9303 625.708 676.7851 626.884 670.972 627.892 L 670.972 630.244 L 674.0446 631 C 676.0377 631.504 676.53594 632.764 676.53594 634.528 C 676.702 647.128 676.7851 664.6 676.619 679.132 C 676.619 681.4 675.8716 682.324 674.1277 682.912 L 673.2972 683.248 L 673.2972 685.6 L 695.0547 685.6 L 695.0547 683.248 L 693.55994 682.912 C 691.733 682.492 691.1517 681.316 691.1517 679.216 Z M 720.3001 682.828 C 719.1375 682.408 718.4731 681.82 717.8088 680.56 C 713.9887 672.832 710.0857 664.516 706.43175 656.452 L 718.55616 648.724 L 718.55616 646.204 L 698.9578 646.204 L 698.9578 648.136 C 700.20345 650.488 701.4491 652.84 702.6948 655.276 L 692.64646 661.492 C 696.5495 669.388 700.3695 677.704 703.9404 685.6 L 721.4627 685.6 L 721.4627 683.248 Z"
                                                      fill="#fdf6e3"/>
                                            </g>
                                            <g id="Graphic_59">
                                                <path d="M 752.2897 662.836 C 752.7591 652.42 746.7351 645.112 736.8776 645.112 C 726.00306 645.112 717.632 654.016 717.632 666.7 C 717.632 678.376 724.7513 686.608 736.8776 686.608 C 744.07515 686.608 748.8474 683.5 751.5856 677.284 L 750.4121 675.52 C 748.6127 676.696 746.7351 677.452 743.9969 677.452 C 737.8164 677.452 733.1224 673.588 731.323 666.7 C 737.65995 666.7 743.9969 666.616 750.1774 666.532 Z M 730.5406 659.98 C 730.5406 653.092 732.7312 647.968 735.4694 647.968 C 737.9729 647.968 740.007 654.688 739.4593 663.76 C 736.5647 663.844 733.7482 663.928 730.7753 663.928 C 730.6189 662.668 730.5406 661.324 730.5406 659.98 Z"
                                                      fill="#fdf6e3"/>
                                            </g>
                                            <g id="Graphic_60">
                                                <path d="M 785.6137 645.112 C 782.7556 645.112 779.7341 646.708 775.9777 649.9 L 774.5895 651.16 L 773.6095 645.196 L 771.6497 645.196 C 766.26 646.288 761.442 647.128 756.624 647.968 L 756.624 650.32 L 758.0122 650.74 C 759.89045 651.16 760.7071 652.252 760.7071 654.436 C 760.8704 662.584 760.8704 671.152 760.7071 679.216 C 760.7071 681.316 759.9721 682.324 758.2572 682.912 L 757.4406 683.248 L 757.4406 685.6 L 780.6324 685.6 L 780.6324 683.248 L 777.4476 682.492 C 775.48775 682.072 774.9978 680.98 774.9978 678.88 C 774.8345 670.984 774.9161 662.584 774.9978 654.436 C 775.4061 654.016 775.8144 653.68 776.2227 653.428 C 777.7743 652.252 779.48915 652.924 780.1424 654.94 C 781.2857 657.544 782.429 660.652 783.4089 663.928 L 786.512 663.928 L 790.8401 647.128 C 789.6968 645.868 787.8186 645.112 785.6137 645.112 Z"
                                                      fill="#fdf6e3"/>
                                            </g>
                                        </g>
                                        <g id="Group_65">
                                            <title>Dan</title>
                                            <g id="Graphic_62">
                                                <path d="M 257.522 685.6 L 282.28993 685.6 C 299.0682 685.6 310.4135 674.26 310.4135 657.628 C 310.4135 641.584 299.228 631.252 282.36983 631.252 L 257.522 631.252 L 257.522 633.856 L 259.5194 634.276 C 261.19724 634.612 262.0761 635.704 262.0761 637.552 C 262.3158 651.412 262.3158 665.272 262.0761 679.3 C 262.0761 681.148 261.19724 682.24 259.5194 682.576 L 257.522 682.996 Z M 282.21003 682.912 C 280.7719 682.912 279.01417 682.744 277.09666 682.408 C 276.93686 666.196 276.93686 650.152 277.09666 634.276 C 278.5348 634.024 279.89303 633.94 280.5322 633.94 C 288.28217 633.94 294.5141 644.188 294.5141 659.56 C 294.5141 674.092 289.40072 682.912 282.21003 682.912 Z"
                                                      fill="#fdf6e3"/>
                                            </g>
                                            <g id="Graphic_63">
                                                <path d="M 355.4553 681.4 C 353.73274 680.896 352.6664 680.056 352.6664 677.788 C 352.58436 672.328 352.6664 664.768 352.6664 658.3 C 352.7484 648.892 345.53 645.196 336.589 645.196 C 330.19088 645.196 323.3826 647.968 316.90244 652.672 L 322.07016 661.828 L 324.36693 661.828 C 326.00748 658.552 326.9918 656.452 328.7144 653.26 C 331.01115 648.892 332.15953 648.052 333.554 648.052 C 335.76874 648.052 338.3936 651.076 338.3936 659.476 L 338.3936 661.66 C 333.8821 662.92 327.3199 664.936 325.92545 665.44 C 319.36326 667.876 315.59 671.488 315.59 677.2 C 315.59 682.66 319.4453 686.692 325.7614 686.692 C 330.43696 686.692 334.86644 684.256 339.13186 681.148 L 341.18255 686.44 L 342.65904 686.44 C 347.3346 685.516 352.01016 684.76 356.52167 684.172 L 356.52167 681.736 Z M 330.2729 674.764 C 330.2729 671.236 331.58534 667.036 335.85077 665.104 L 338.3936 664.096 C 338.3936 669.388 338.47564 675.016 338.3936 679.048 C 336.8351 680.476 335.52266 681.232 334.1282 681.232 C 331.5033 681.232 330.2729 678.712 330.2729 674.764 Z"
                                                      fill="#fdf6e3"/>
                                            </g>
                                            <g id="Graphic_64">
                                                <path d="M 403.46703 682.912 C 401.84446 682.324 401.1143 681.316 401.1143 679.132 C 401.0332 671.488 401.0332 664.012 401.0332 656.788 C 401.1143 649.816 396.49 645.196 389.67523 645.196 C 384.7264 645.196 380.83226 647.716 377.8305 649.564 L 376.3702 650.488 L 375.4778 645.196 L 373.5307 645.196 C 368.09513 646.288 363.3897 647.128 358.522 647.968 L 358.522 650.32 L 359.9012 650.74 C 361.60487 651.16 362.5784 652.252 362.5784 654.352 C 362.74067 662.5 362.74067 671.152 362.5784 679.132 C 362.5784 681.316 361.9294 682.24 360.14456 682.912 L 359.3333 683.248 L 359.3333 685.6 L 380.3455 685.6 L 380.3455 683.248 L 379.2097 682.912 C 377.58713 682.408 376.77585 681.4 376.77585 679.216 C 376.6136 670.984 376.6947 662.164 376.77585 653.764 C 378.3173 652.672 380.18323 651.832 381.88692 651.832 C 385.2132 651.832 386.83574 654.184 386.91687 658.552 C 386.998 665.104 387.07913 672.076 386.91687 679.132 C 386.91687 681.316 386.1056 682.408 384.48303 682.912 L 383.34723 683.248 L 383.34723 685.6 L 404.35944 685.6 L 404.35944 683.248 Z"
                                                      fill="#fdf6e3"/>
                                            </g>
                                        </g>
                                        <g id="Graphic_66">
                                            <title>y</title>
                                            <path d="M 440.876 647.128 L 440.876 648.892 C 442.808 649.396 444.068 650.068 446.168 650.908 C 447.008 651.244 447.26 652.084 446.756 653.428 C 443.48 662.584 440.204 671.656 436.928 680.644 C 433.4 671.32 429.62 660.736 426.596 652.42 C 426.008 650.824 425.924 649.564 428.192 649.312 L 432.308 648.892 L 432.308 647.128 L 415.676 647.128 L 415.676 648.892 L 418.448 649.312 C 419.96 649.564 420.464 649.984 421.304 652 C 425.504 662.92 430.292 675.688 434.492 687.28 C 434.324 687.784 434.072 688.288 433.904 688.708 C 430.88 693.832 427.52 699.124 424.16 704.416 L 424.16 705.592 C 426.008 705.592 427.94 705.676 429.704 705.76 L 449.192 653.008 C 449.612 651.832 450.2 651.076 451.208 650.488 C 452.384 649.9 453.728 649.312 454.988 648.892 L 454.988 647.128 Z"
                                                  fill="#012b36"/>
                                        </g>
                                    </g>
                                </g>
                            </g>
                        </svg>
