<?xml version="1.0" encoding="UTF-8" standalone="no"?>
<!DOCTYPE svg PUBLIC "-//W3C//DTD SVG 1.1//EN" "http://www.w3.org/Graphics/SVG/1.1/DTD/svg11.dtd">
<svg xmlns:dc="http://purl.org/dc/elements/1.1/" xmlns:xl="http://www.w3.org/1999/xlink" version="1.1" xmlns="http://www.w3.org/2000/svg" viewBox="433.022 455.252 385.298 116.44" width="385.298" height="116.44">
  <defs/>
  <metadata> Produced by OmniGraffle 7.9.2 
    <dc:date>2018-11-13 11:50:09 +0000</dc:date>
  </metadata>
  <g id="Canvas_1" stroke-opacity="1" stroke-dasharray="none" fill-opacity="1" fill="none" stroke="none">
    <title>Canvas 1</title>
    <g id="Canvas_1: Text">
      <title>Text</title>
      <g id="Group_32">
        <title>Landsker</title>
        <g id="Graphic_24">
          <path d="M 490.94 570.6 L 529.52035 570.6 C 530.1701 563.88 530.8199 557.16 531.3072 550.524 L 528.78935 550.524 C 525.45926 555.816 522.04795 560.94 518.4742 565.896 C 517.66197 567.156 516.6873 567.576 515.38776 567.408 L 510.7581 566.904 C 510.51445 551.7 510.51445 535.824 510.7581 522.552 C 510.7581 520.704 511.4891 519.696 513.276 519.276 L 515.2253 518.772 L 515.2253 516.252 L 490.94 516.252 L 490.94 518.772 L 492.97054 519.276 C 494.595 519.612 495.4072 520.704 495.4884 522.552 C 495.65086 535.236 495.65086 550.608 495.4884 563.88 C 495.4072 566.232 494.6762 567.156 492.8081 567.576 L 490.94 567.996 Z" fill="#fdf6e3"/>
        </g>
        <g id="Graphic_25">
          <path d="M 573.4093 566.4 C 571.68674 565.896 570.6204 565.056 570.6204 562.788 C 570.53836 557.328 570.6204 549.768 570.6204 543.3 C 570.7024 533.892 563.484 530.196 554.543 530.196 C 548.1449 530.196 541.3366 532.968 534.85644 537.672 L 540.02416 546.828 L 542.3209 546.828 C 543.9615 543.552 544.9458 541.452 546.6684 538.26 C 548.96515 533.892 550.11353 533.052 551.508 533.052 C 553.72274 533.052 556.3476 536.076 556.3476 544.476 L 556.3476 546.66 C 551.8361 547.92 545.2739 549.936 543.87945 550.44 C 537.31726 552.876 533.544 556.488 533.544 562.2 C 533.544 567.66 537.3993 571.692 543.7154 571.692 C 548.39096 571.692 552.82044 569.256 557.08586 566.148 L 559.13655 571.44 L 560.61304 571.44 C 565.2886 570.516 569.96416 569.76 574.4757 569.172 L 574.4757 566.736 Z M 548.2269 559.764 C 548.2269 556.236 549.53934 552.036 553.8048 550.104 L 556.3476 549.096 C 556.3476 554.388 556.42964 560.016 556.3476 564.048 C 554.7891 565.476 553.47666 566.232 552.0822 566.232 C 549.4573 566.232 548.2269 563.712 548.2269 559.764 Z" fill="#fdf6e3"/>
        </g>
        <g id="Graphic_26">
          <path d="M 620.421 567.912 C 618.79846 567.324 618.0683 566.316 618.0683 564.132 C 617.9872 556.488 617.9872 549.012 617.9872 541.788 C 618.0683 534.816 613.444 530.196 606.6292 530.196 C 601.6804 530.196 597.78626 532.716 594.7845 534.564 L 593.3242 535.488 L 592.4318 530.196 L 590.4847 530.196 C 585.0491 531.288 580.3437 532.128 575.476 532.968 L 575.476 535.32 L 576.8552 535.74 C 578.5589 536.16 579.5324 537.252 579.5324 539.352 C 579.6947 547.5 579.6947 556.152 579.5324 564.132 C 579.5324 566.316 578.8834 567.24 577.09856 567.912 L 576.2873 568.248 L 576.2873 570.6 L 597.2995 570.6 L 597.2995 568.248 L 596.1637 567.912 C 594.5411 567.408 593.72985 566.4 593.72985 564.216 C 593.5676 555.984 593.6487 547.164 593.72985 538.764 C 595.2713 537.672 597.1372 536.832 598.8409 536.832 C 602.1672 536.832 603.78974 539.184 603.8709 543.552 C 603.952 550.104 604.0331 557.076 603.8709 564.132 C 603.8709 566.316 603.0596 567.408 601.437 567.912 L 600.3012 568.248 L 600.3012 570.6 L 621.3134 570.6 L 621.3134 568.248 Z" fill="#fdf6e3"/>
        </g>
        <g id="Graphic_27">
          <path d="M 663.95005 566.4 C 662.31305 565.896 661.249 565.14 661.249 562.872 C 661.16714 546.912 661.249 518.94 661.33084 509.952 L 659.03904 509.952 C 653.3914 511.128 646.6797 512.556 641.1957 513.48 L 641.1957 515.832 L 644.4697 516.588 C 646.516 517.092 646.9252 518.268 646.9252 520.032 C 646.9252 523.644 647.0071 527.256 647.0071 530.784 C 645.5338 530.364 643.8968 530.196 642.0961 530.196 C 630.2278 530.196 621.388 538.68 621.388 552.792 C 621.388 563.712 627.19936 571.692 636.7758 571.692 C 641.2776 571.692 645.1245 569.424 647.9893 566.988 L 649.9537 571.356 L 651.5088 571.44 C 655.6013 570.6 661.5764 569.592 665.0141 569.172 L 665.0141 566.736 Z M 636.3666 546.576 C 636.3666 537.42 638.8221 533.052 641.8505 533.052 C 644.6334 533.052 646.7615 536.412 647.0889 543.3 C 647.0889 551.028 647.0889 558.336 647.0071 564.552 C 645.943 565.308 645.0427 565.56 644.0605 565.56 C 638.4947 565.56 636.3666 556.992 636.3666 546.576 Z" fill="#fdf6e3"/>
        </g>
        <g id="Graphic_28">
          <path d="M 681.7308 571.608 C 691.9391 571.608 697.7289 566.568 697.7289 558.672 C 697.7289 545.484 679.21685 544.728 679.21685 536.16 C 679.21685 534.06 680.5119 532.884 682.4165 532.884 C 684.09246 532.884 685.5399 533.724 687.7492 536.496 C 689.349 538.512 691.5582 541.536 692.5486 543.132 L 694.834 543.132 C 695.0626 539.604 695.4435 535.236 695.7482 532.548 C 692.7771 531.036 688.1301 530.196 684.2448 530.196 C 673.9603 530.196 668.78 535.824 668.78 543.132 C 668.78 556.068 686.9112 556.572 686.9112 565.308 C 686.9112 567.24 685.997 569.004 683.4068 569.004 C 681.27375 569.004 679.8263 568.08 678.6074 566.652 C 676.8552 564.552 673.3509 559.848 671.6749 557.244 L 669.1609 557.244 C 669.1609 561.192 668.9324 566.148 668.78 569.172 C 672.3605 570.768 677.8456 571.608 681.7308 571.608 Z" fill="#fdf6e3"/>
        </g>
        <g id="Graphic_29">
          <path d="M 717.6517 564.216 C 717.4856 545.988 717.4025 528.264 717.4856 509.616 L 715.16035 509.616 C 709.4303 510.708 703.2851 511.884 697.472 512.892 L 697.472 515.244 L 700.5446 516 C 702.5377 516.504 703.0359 517.764 703.0359 519.528 C 703.202 532.128 703.2851 549.6 703.119 564.132 C 703.119 566.4 702.3716 567.324 700.6277 567.912 L 699.7972 568.248 L 699.7972 570.6 L 721.5547 570.6 L 721.5547 568.248 L 720.0599 567.912 C 718.233 567.492 717.6517 566.316 717.6517 564.216 Z M 746.8001 567.828 C 745.6375 567.408 744.9731 566.82 744.3088 565.56 C 740.4887 557.832 736.5857 549.516 732.93175 541.452 L 745.0562 533.724 L 745.0562 531.204 L 725.4578 531.204 L 725.4578 533.136 C 726.70345 535.488 727.9491 537.84 729.1948 540.276 L 719.1465 546.492 C 723.0495 554.388 726.8695 562.704 730.4404 570.6 L 747.9627 570.6 L 747.9627 568.248 Z" fill="#fdf6e3"/>
        </g>
        <g id="Graphic_30">
          <path d="M 778.7897 547.836 C 779.2591 537.42 773.2351 530.112 763.3776 530.112 C 752.5031 530.112 744.132 539.016 744.132 551.7 C 744.132 563.376 751.2513 571.608 763.3776 571.608 C 770.57515 571.608 775.3474 568.5 778.0856 562.284 L 776.9121 560.52 C 775.1127 561.696 773.2351 562.452 770.4969 562.452 C 764.3164 562.452 759.6224 558.588 757.823 551.7 C 764.15995 551.7 770.4969 551.616 776.6774 551.532 Z M 757.0406 544.98 C 757.0406 538.092 759.2312 532.968 761.9694 532.968 C 764.4729 532.968 766.507 539.688 765.9593 548.76 C 763.0647 548.844 760.2482 548.928 757.2753 548.928 C 757.1189 547.668 757.0406 546.324 757.0406 544.98 Z" fill="#fdf6e3"/>
        </g>
        <g id="Graphic_31">
          <path d="M 812.1137 530.112 C 809.2556 530.112 806.2341 531.708 802.4777 534.9 L 801.0895 536.16 L 800.1095 530.196 L 798.1497 530.196 C 792.76 531.288 787.942 532.128 783.124 532.968 L 783.124 535.32 L 784.5122 535.74 C 786.39045 536.16 787.2071 537.252 787.2071 539.436 C 787.3704 547.584 787.3704 556.152 787.2071 564.216 C 787.2071 566.316 786.4721 567.324 784.7572 567.912 L 783.9406 568.248 L 783.9406 570.6 L 807.1324 570.6 L 807.1324 568.248 L 803.9476 567.492 C 801.98775 567.072 801.4978 565.98 801.4978 563.88 C 801.3345 555.984 801.4161 547.584 801.4978 539.436 C 801.9061 539.016 802.3144 538.68 802.7227 538.428 C 804.2743 537.252 805.98915 537.924 806.6424 539.94 C 807.7857 542.544 808.929 545.652 809.9089 548.928 L 813.012 548.928 L 817.3401 532.128 C 816.1968 530.868 814.3186 530.112 812.1137 530.112 Z" fill="#fdf6e3"/>
        </g>
      </g>
      <g id="Group_36">
        <title>Dan</title>
        <g id="Graphic_33">
          <path d="M 433.022 509.6 L 457.78993 509.6 C 474.5682 509.6 485.9135 498.26 485.9135 481.628 C 485.9135 465.584 474.728 455.252 457.86983 455.252 L 433.022 455.252 L 433.022 457.856 L 435.0194 458.276 C 436.69724 458.612 437.5761 459.704 437.5761 461.552 C 437.8158 475.412 437.8158 489.272 437.5761 503.3 C 437.5761 505.148 436.69724 506.24 435.0194 506.576 L 433.022 506.996 Z M 457.71003 506.912 C 456.2719 506.912 454.51417 506.744 452.59666 506.408 C 452.43686 490.196 452.43686 474.152 452.59666 458.276 C 454.0348 458.024 455.39303 457.94 456.0322 457.94 C 463.7822 457.94 470.0141 468.188 470.0141 483.56 C 470.0141 498.092 464.9007 506.912 457.71003 506.912 Z" fill="#fdf6e3"/>
        </g>
        <g id="Graphic_34">
          <path d="M 530.9553 505.4 C 529.23274 504.896 528.1664 504.056 528.1664 501.788 C 528.08436 496.328 528.1664 488.768 528.1664 482.3 C 528.2484 472.892 521.03 469.196 512.089 469.196 C 505.6909 469.196 498.8826 471.968 492.40244 476.672 L 497.57016 485.828 L 499.86693 485.828 C 501.5075 482.552 502.4918 480.452 504.2144 477.26 C 506.51115 472.892 507.65953 472.052 509.054 472.052 C 511.26874 472.052 513.8936 475.076 513.8936 483.476 L 513.8936 485.66 C 509.3821 486.92 502.8199 488.936 501.42545 489.44 C 494.86326 491.876 491.09 495.488 491.09 501.2 C 491.09 506.66 494.9453 510.692 501.2614 510.692 C 505.93696 510.692 510.36644 508.256 514.63186 505.148 L 516.68255 510.44 L 518.15904 510.44 C 522.8346 509.516 527.51016 508.76 532.0217 508.172 L 532.0217 505.736 Z M 505.7729 498.764 C 505.7729 495.236 507.08534 491.036 511.35077 489.104 L 513.8936 488.096 C 513.8936 493.388 513.97564 499.016 513.8936 503.048 C 512.3351 504.476 511.02266 505.232 509.6282 505.232 C 507.0033 505.232 505.7729 502.712 505.7729 498.764 Z" fill="#fdf6e3"/>
        </g>
        <g id="Graphic_35">
          <path d="M 578.967 506.912 C 577.34446 506.324 576.6143 505.316 576.6143 503.132 C 576.5332 495.488 576.5332 488.012 576.5332 480.788 C 576.6143 473.816 571.99 469.196 565.1752 469.196 C 560.2264 469.196 556.33226 471.716 553.3305 473.564 L 551.8702 474.488 L 550.9778 469.196 L 549.0307 469.196 C 543.5951 470.288 538.8897 471.128 534.022 471.968 L 534.022 474.32 L 535.4012 474.74 C 537.1049 475.16 538.0784 476.252 538.0784 478.352 C 538.24067 486.5 538.24067 495.152 538.0784 503.132 C 538.0784 505.316 537.4294 506.24 535.64456 506.912 L 534.8333 507.248 L 534.8333 509.6 L 555.8455 509.6 L 555.8455 507.248 L 554.7097 506.912 C 553.0871 506.408 552.27585 505.4 552.27585 503.216 C 552.1136 494.984 552.1947 486.164 552.27585 477.764 C 553.8173 476.672 555.6832 475.832 557.3869 475.832 C 560.7132 475.832 562.33574 478.184 562.4169 482.552 C 562.498 489.104 562.5791 496.076 562.4169 503.132 C 562.4169 505.316 561.6056 506.408 559.983 506.912 L 558.8472 507.248 L 558.8472 509.6 L 579.85944 509.6 L 579.85944 507.248 Z" fill="#fdf6e3"/>
        </g>
      </g>
      <g id="Graphic_37">
        <title>y</title>
        <path d="M 605.61076 492.354 L 605.61076 493.362 C 606.3991 493.866 607.1875 495 608.01735 495.798 C 608.4323 496.26 608.4738 496.848 608.1833 497.604 C 606.9385 500.88 605.69375 504.114 604.49045 507.348 C 602.8307 503.148 601.171 498.78 599.84324 495.21 C 599.5113 494.412 599.6358 493.74 600.6731 493.572 L 602.08386 493.404 L 602.08386 492.354 L 592.416 492.354 L 592.416 493.362 L 593.4533 493.614 C 594.1172 493.824 594.40766 494.034 594.7811 494.916 C 597.2292 500.628 599.9262 507.138 602.2913 513.102 C 602.16685 513.438 602.0424 513.732 601.9594 514.026 C 599.8847 516.252 597.7271 518.52 595.4865 520.788 L 595.4865 521.628 C 597.0217 521.67 598.63994 521.754 600.1337 521.88 L 609.4696 497.646 C 609.80155 496.764 610.2165 496.05 610.7559 495.378 C 611.4613 494.58 612.20814 493.824 612.78904 493.362 L 612.78904 492.354 Z" fill="#fdf6e3"/>
      </g>
    </g>
  </g>
</svg>
